<?xml version="1.0" encoding="UTF-8" standalone="no"?> <svg width="48" height="48" viewBox="0 0 48 48" fill="none" xmlns="http://www.w3.org/2000/svg">
<path d="M24 2C19.6488 2 15.3953 3.29028 11.7775 5.70767C8.15958 8.12506 5.33979 11.561 3.67466 15.581C2.00953 19.6009 1.57386 24.0244 2.42273 28.292C3.27161 32.5596 5.36691 36.4796 8.44366 39.5564C11.5204 42.6331 15.4404 44.7284 19.708 45.5773C23.9756 46.4261 28.3991 45.9905 32.419 44.3253C36.439 42.6602 39.875 39.8404 42.2923 36.2225C44.7097 32.6047 46 28.3512 46 24C45.9934 18.1673 43.6734 12.5753 39.5491 8.45096C35.4247 4.32659 29.8327 2.00662 24 2V2ZM39.075 10.9L35.942 12.857C35.7361 12.9868 35.5068 13.0751 35.267 13.117L33.218 13.456C32.9446 13.501 32.6647 13.486 32.3977 13.4119C32.1307 13.3377 31.8831 13.2064 31.672 13.0269C31.4609 12.8474 31.2915 12.6241 31.1754 12.3725C31.0594 12.1209 30.9995 11.8471 31 11.57V10.75C31.0012 10.4258 31.0855 10.1073 31.245 9.825L33.217 6.269C35.4416 7.43347 37.4285 9.0042 39.075 10.9V10.9ZM15.424 5.959L18.043 7.836C18.2691 7.99637 18.4369 8.2259 18.5211 8.48997C18.6054 8.75404 18.6015 9.03834 18.51 9.3L18.222 10.176C18.1578 10.3637 18.0522 10.5346 17.913 10.676L15.963 12.626C15.6569 12.9305 15.4142 13.2927 15.2489 13.6916C15.0836 14.0905 14.999 14.5182 15 14.95V16.05C15.0008 16.2194 14.9678 16.3873 14.9031 16.5439C14.8384 16.7004 14.7432 16.8426 14.623 16.962C14.0843 17.5023 13.7494 18.2125 13.6754 18.9719C13.6014 19.7313 13.7928 20.4929 14.217 21.127L14.317 21.268C14.6768 21.8157 15.1924 22.243 15.7974 22.4949C16.4023 22.7468 17.0689 22.8116 17.711 22.681L20.211 22.181C20.3871 22.1472 20.5682 22.1502 20.7431 22.1898C20.9179 22.2294 21.0827 22.3047 21.227 22.411L23.978 24.481C24.134 24.6017 24.2622 24.7545 24.354 24.929L25.373 26.97C25.4964 27.2135 25.5395 27.4899 25.496 27.7594C25.4526 28.0289 25.3248 28.2777 25.131 28.47L22.971 30.63C22.664 30.9334 22.4201 31.2947 22.2534 31.6929C22.0867 32.0911 22.0006 32.5183 22 32.95V36.77C22.0017 36.9826 21.9505 37.1922 21.851 37.3801C21.7515 37.5679 21.6068 37.728 21.43 37.846L20.71 38.321C20.4989 38.464 20.2496 38.54 19.9946 38.5389C19.7396 38.5378 19.4909 38.4598 19.281 38.315L18.568 37.845C18.3917 37.7269 18.2475 37.5668 18.1483 37.3792C18.0492 37.1915 17.9982 36.9822 18 36.77V34.23C18.0026 33.687 17.8699 33.1519 17.614 32.673C17.3581 32.1942 16.9869 31.7866 16.534 31.487L15.568 30.845C15.3917 30.7269 15.2475 30.5668 15.1483 30.3792C15.0492 30.1915 14.9982 29.9822 15 29.77V25.95C15.0014 25.5177 14.917 25.0894 14.7517 24.69C14.5864 24.2906 14.3435 23.9279 14.037 23.623L12.087 21.673C11.7277 21.3143 11.2903 21.0436 10.809 20.882L9.40901 20.411C9.21799 20.3479 9.04446 20.2408 8.90238 20.0984C8.76031 19.956 8.65365 19.7822 8.59101 19.591L8.25301 18.591C8.1163 18.1814 7.90021 17.8028 7.61709 17.4768C7.33398 17.1508 6.98938 16.8838 6.60301 16.691L5.59701 16.185C7.5219 11.6959 11.015 8.06093 15.424 5.959V5.959ZM24 44C20.8661 43.9999 17.776 43.2633 14.979 41.8496C12.182 40.4359 9.75634 38.3847 7.89768 35.8614C6.03901 33.3381 4.79935 30.4134 4.27865 27.323C3.75795 24.2326 3.97079 21.063 4.90001 18.07L5.70501 18.475C5.85757 18.5491 5.99366 18.6532 6.10515 18.781C6.21665 18.9088 6.30129 19.0578 6.35401 19.219L6.69301 20.227C6.8526 20.7125 7.12395 21.1537 7.48523 21.5152C7.8465 21.8766 8.2876 22.1482 8.77301 22.308L10.173 22.779C10.3608 22.8425 10.5318 22.9478 10.673 23.087L12.623 25.037C12.7431 25.1567 12.8383 25.299 12.903 25.4557C12.9677 25.6125 13.0007 25.7804 13 25.95V29.77C12.9974 30.313 13.1301 30.8481 13.386 31.327C13.642 31.8058 14.0131 32.2134 14.466 32.513L15.432 33.155C15.6083 33.2731 15.7525 33.4332 15.8517 33.6208C15.9508 33.8085 16.0018 34.0178 16 34.23V36.77C15.9975 37.3136 16.1305 37.8492 16.387 38.3285C16.6435 38.8077 17.0153 39.2155 17.469 39.515L18.169 39.979C18.7096 40.345 19.3472 40.5411 20 40.542C20.6479 40.5421 21.2809 40.3478 21.817 39.984L22.526 39.516C22.9807 39.217 23.3536 38.8092 23.611 38.3298C23.8683 37.8503 24.0021 37.3142 24 36.77V32.95C23.9994 32.7804 24.0323 32.6125 24.097 32.4557C24.1618 32.299 24.2569 32.1567 24.377 32.037L26.537 29.877C27.026 29.3887 27.3488 28.7588 27.4596 28.0767C27.5703 27.3946 27.4634 26.6949 27.154 26.077L26.129 24.025C25.8989 23.5785 25.5719 23.189 25.172 22.885L22.42 20.809C22.0499 20.5308 21.625 20.3345 21.1733 20.233C20.7216 20.1314 20.2535 20.127 19.8 20.22L17.315 20.72C17.06 20.7725 16.7951 20.7466 16.5552 20.6455C16.3153 20.5445 16.1116 20.3731 15.971 20.154L15.871 20.007C15.73 19.795 15.6561 19.5455 15.659 19.291C15.6597 18.9489 15.7951 18.6209 16.036 18.378C16.3428 18.0731 16.5859 17.7103 16.7514 17.3106C16.9169 16.911 17.0014 16.4825 17 16.05V14.95C16.9994 14.7804 17.0323 14.6125 17.097 14.4557C17.1618 14.299 17.2569 14.1567 17.377 14.037L19.327 12.087C19.687 11.7249 19.9585 11.2844 20.12 10.8L20.408 9.923C20.6349 9.25637 20.6398 8.53419 20.4221 7.86452C20.2043 7.19485 19.7756 6.61369 19.2 6.208L17.61 5.065C22.099 3.52771 26.9915 3.65834 31.392 5.433L29.5 8.852C29.1743 9.43242 29.0022 10.0864 29 10.752V11.572C28.9986 12.1394 29.1211 12.7002 29.3588 13.2153C29.5965 13.7305 29.9437 14.1876 30.3763 14.5547C30.8088 14.9219 31.3163 15.1902 31.8632 15.341C32.4102 15.4919 32.9834 15.5215 33.543 15.428L35.611 15.085C36.1122 14.9988 36.5913 14.8136 37.02 14.54L40.32 12.48C41.0951 13.572 41.7585 14.7392 42.3 15.964L39.264 17.7C38.9735 17.8645 38.6356 17.9252 38.306 17.872L34.734 17.272C34.011 17.1535 33.269 17.2673 32.6148 17.5972C31.9606 17.927 31.4279 18.4558 31.0932 19.1076C30.7585 19.7593 30.6392 20.5004 30.7524 21.2243C30.8656 21.9482 31.2054 22.6175 31.723 23.136L32.764 24.177C32.9675 24.3811 33.1066 24.6405 33.164 24.923L33.864 28.474C34.0026 29.1416 34.3335 29.7541 34.816 30.236L36.846 32.266C37.0161 32.4364 37.1427 32.6453 37.215 32.875L38.625 37.589C36.761 39.6082 34.4996 41.2201 31.9827 42.3234C29.4659 43.4267 26.7481 43.9975 24 44V44ZM40.163 35.731L39.136 32.3C38.9693 31.7552 38.6708 31.2599 38.267 30.858L36.236 28.827C36.0325 28.6229 35.8934 28.3635 35.836 28.081L35.136 24.53C34.9974 23.8624 34.6665 23.2499 34.184 22.768L33.144 21.729C32.9236 21.5117 32.778 21.2299 32.728 20.9244C32.6781 20.619 32.7265 20.3055 32.8662 20.0293C33.0059 19.7531 33.2297 19.5284 33.5054 19.3876C33.7811 19.2468 34.0943 19.1972 34.4 19.246L37.974 19.846C38.7578 19.9749 39.562 19.8305 40.252 19.437L43.02 17.853C43.9951 20.8462 44.2441 24.0283 43.7467 27.1367C43.2492 30.2451 42.0195 33.1906 40.159 35.73L40.163 35.731Z" fill="black"/>
</svg>
