<?xml version="1.0" encoding="UTF-8" standalone="no"?> <svg width="64" height="64" viewBox="0 0 64 64" fill="none" xmlns="http://www.w3.org/2000/svg">
<path d="M53.88 15H53V13C53 12.7348 52.8946 12.4804 52.7071 12.2929C52.5196 12.1054 52.2652 12 52 12H47C46.7348 12 46.4804 12.1054 46.2929 12.2929C46.1054 12.4804 46 12.7348 46 13V15H41V12.81C40.9974 11.2699 40.3844 9.79364 39.2954 8.70463C38.2064 7.61562 36.7301 7.00264 35.19 7H28.81C27.2699 7.00264 25.7936 7.61562 24.7046 8.70463C23.6156 9.79364 23.0026 11.2699 23 12.81V15H18V13C18 12.7348 17.8946 12.4804 17.7071 12.2929C17.5196 12.1054 17.2652 12 17 12H12C11.7348 12 11.4804 12.1054 11.2929 12.2929C11.1054 12.4804 11 12.7348 11 13V15H10.13C8.23982 15.0026 6.42781 15.7547 5.09125 17.0913C3.75469 18.4278 3.00265 20.2398 3 22.13V49.88C3.00529 51.7684 3.7585 53.5779 5.09477 54.9123C6.43105 56.2467 8.24155 56.9974 10.13 57H53.88C55.7667 56.9947 57.5747 56.2429 58.9088 54.9088C60.2429 53.5747 60.9947 51.7667 61 49.88V22.13C60.9974 20.2415 60.2467 18.431 58.9123 17.0948C57.5779 15.7585 55.7684 15.0053 53.88 15V15ZM48 14H51V15H48V14ZM25 12.81C25.0026 11.8003 25.4049 10.8328 26.1188 10.1188C26.8328 9.4049 27.8003 9.00264 28.81 9H35.19C36.1997 9.00264 37.1672 9.4049 37.8812 10.1188C38.5951 10.8328 38.9974 11.8003 39 12.81V15H25V12.81ZM13 14H16V15H13V14ZM59 49.88C58.9974 51.2371 58.4571 52.5379 57.4975 53.4975C56.5379 54.4571 55.2371 54.9974 53.88 55H10.13C8.77117 55 7.46785 54.4609 6.50607 53.501C5.5443 52.5411 5.00265 51.2388 5 49.88V22.13C5 20.7694 5.54048 19.4646 6.50254 18.5025C7.4646 17.5405 8.76944 17 10.13 17H53.88C55.2388 17.0026 56.5411 17.5443 57.501 18.5061C58.4609 19.4678 59 20.7712 59 22.13V49.88Z" fill="black"/>
<path d="M40 33H35V28C35 27.7348 34.8946 27.4804 34.7071 27.2929C34.5196 27.1054 34.2652 27 34 27H30C29.7348 27 29.4804 27.1054 29.2929 27.2929C29.1054 27.4804 29 27.7348 29 28V33H24C23.7348 33 23.4804 33.1054 23.2929 33.2929C23.1054 33.4804 23 33.7348 23 34V38C23 38.2652 23.1054 38.5196 23.2929 38.7071C23.4804 38.8946 23.7348 39 24 39H29V44C29 44.2652 29.1054 44.5196 29.2929 44.7071C29.4804 44.8946 29.7348 45 30 45H34C34.2652 45 34.5196 44.8946 34.7071 44.7071C34.8946 44.5196 35 44.2652 35 44V39H40C40.2652 39 40.5196 38.8946 40.7071 38.7071C40.8946 38.5196 41 38.2652 41 38V34C41 33.7348 40.8946 33.4804 40.7071 33.2929C40.5196 33.1054 40.2652 33 40 33ZM39 37H34C33.7348 37 33.4804 37.1054 33.2929 37.2929C33.1054 37.4804 33 37.7348 33 38V43H31V38C31 37.7348 30.8946 37.4804 30.7071 37.2929C30.5196 37.1054 30.2652 37 30 37H25V35H30C30.2652 35 30.5196 34.8946 30.7071 34.7071C30.8946 34.5196 31 34.2652 31 34V29H33V34C33 34.2652 33.1054 34.5196 33.2929 34.7071C33.4804 34.8946 33.7348 35 34 35H39V37Z" fill="black"/>
<path d="M32 21C29.0333 21 26.1332 21.8797 23.6665 23.528C21.1997 25.1762 19.2771 27.5189 18.1418 30.2597C17.0065 33.0006 16.7094 36.0166 17.2882 38.9264C17.867 41.8361 19.2956 44.5088 21.3934 46.6066C23.4912 48.7044 26.1639 50.133 29.0737 50.7118C31.9834 51.2906 34.9994 50.9935 37.7403 49.8582C40.4811 48.7229 42.8238 46.8003 44.4721 44.3336C46.1203 41.8668 47 38.9667 47 36C47 32.0218 45.4197 28.2064 42.6066 25.3934C39.7936 22.5804 35.9783 21 32 21ZM32 49C29.4288 49 26.9154 48.2376 24.7776 46.8091C22.6398 45.3806 20.9735 43.3503 19.9896 40.9749C19.0056 38.5994 18.7482 35.9856 19.2498 33.4638C19.7514 30.9421 20.9895 28.6257 22.8076 26.8076C24.6257 24.9895 26.9421 23.7514 29.4638 23.2498C31.9856 22.7482 34.5995 23.0056 36.9749 23.9896C39.3503 24.9735 41.3807 26.6397 42.8091 28.7776C44.2376 30.9154 45 33.4288 45 36C45 39.4478 43.6304 42.7544 41.1924 45.1924C38.7544 47.6304 35.4478 49 32 49V49Z" fill="black"/>
</svg>
