<?xml version="1.0" encoding="utf-8"?>
<!-- Generator: Adobe Illustrator 25.4.1, SVG Export Plug-In . SVG Version: 6.00 Build 0)  -->
<svg version="1.1" id="Outline" xmlns="http://www.w3.org/2000/svg" xmlns:xlink="http://www.w3.org/1999/xlink" x="0px" y="0px"
	 viewBox="0 0 512 512" enable-background="new 0 0 512 512" xml:space="preserve">
<path d="M437.17,274.398c-2.84-1.211-4.676-4.047-4.676-7.219V44.421c0-11.836-4.594-22.891-12.863-31.055
	c-7.914-8.023-18.523-12.609-29.879-12.93c-11.422-0.227-22.547,4.094-31.109,12.414c-8.992,8.742-14.148,20.875-14.148,33.281
	v221.047c0,3.172-1.887,6.031-4.801,7.273c-15.364,6.568-28.841,16.038-40.04,27.538l-59.905-118.483
	c-4.812-11.109-7.254-22.883-7.254-34.992V56.421c8.824,0,16-7.18,16-16v-24c0-8.82-7.176-16-16-16h-112c-8.824,0-16,7.18-16,16v24
	c0,8.82,7.176,16,16,16v92.094c0,12.109-2.441,23.883-7.055,34.562L9.689,388.32c-6.016,11.906-9.195,25.242-9.195,38.578
	c0,47.156,38.363,85.523,85.52,85.523h180.961c20.054,0,39.136-6.98,54.443-19.658c19.855,12.835,42.894,19.658,67.006,19.658
	c2.02,0,4.047-0.047,6.082-0.141c64.938-3.07,117.867-58.531,117.988-123.625C512.588,338.789,483.017,293.945,437.17,274.398z
	 M369.798,24.32c5.254-5.109,11.902-7.898,18.793-7.898c0.238,0,0.477,0.008,0.715,0.016c7.207,0.195,13.934,3.102,19.008,8.242
	c5.273,5.203,8.18,12.219,8.18,19.742v156h-56v-8h24c4.418,0,8-3.578,8-8s-3.582-8-8-8h-24v-32h32c4.418,0,8-3.578,8-8s-3.582-8-8-8
	h-32v-32h24c4.418,0,8-3.578,8-8s-3.582-8-8-8h-24V46.132C360.494,38.023,363.884,30.07,369.798,24.32z M120.494,16.421h112
	l0.012,24H120.494V16.421z M127.92,189.867c5.691-13.133,8.574-27.047,8.574-41.352V56.421h80v92.094
	c0,14.305,2.883,28.219,8.773,41.781l61.73,122.125H168.494v-7.623l24.125-0.377c4.418-0.07,7.941-3.711,7.875-8.125
	c-0.07-4.422-3.691-7.734-8.125-7.875l-23.875,0.373v-31.956l40.082-0.417c4.418-0.047,7.965-3.664,7.918-8.086
	c-0.047-4.414-3.648-8.047-8.082-7.914l-39.918,0.416v-32.039l24.125-0.377c4.418-0.07,7.941-3.711,7.875-8.125
	c-0.07-4.422-3.691-7.781-8.125-7.875l-23.875,0.373v-32.036l16.168-0.337c4.414-0.094,7.922-3.75,7.832-8.164
	s-3.637-7.742-8.168-7.836l-15.832,0.33v-16.33c0-4.422-3.582-8-8-8s-8,3.578-8,8v184H65.979L127.92,189.867z M16.494,426.898
	c0-10.836,2.586-21.68,7.477-31.359l33.922-67.117h94.602v168h-66.48C47.681,496.421,16.494,465.234,16.494,426.898z
	 M266.974,496.421h-98.48v-47.583l40.082-0.417c4.418-0.047,7.965-3.664,7.918-8.086c-0.047-4.391-3.617-7.914-8-7.914h-0.082
	l-39.918,0.416v-32.039l24.125-0.377c4.418-0.07,7.941-3.711,7.875-8.125c-0.07-4.422-3.691-7.68-8.125-7.875l-23.875,0.373v-31.935
	l56.062-0.438c4.418-0.031,7.973-3.641,7.938-8.062c-0.039-4.422-4.027-8.055-8.062-7.938l-55.938,0.437v-8.437H279.97
	c-9.944,17.988-15.477,38.524-15.477,60c0,34.242,13.645,66.109,38.418,89.742c1.712,1.633,3.536,3.094,5.321,4.617
	C296.332,491.59,281.99,496.421,266.974,496.421z M393.748,496.296c-29.93,1.453-58.227-9.141-79.793-29.711
	c-21.578-20.578-33.461-48.344-33.461-78.164c0-43.289,25.707-82.25,65.492-99.258c8.812-3.766,14.508-12.398,14.508-21.984v-18.758
	h24c4.418,0,8-3.578,8-8s-3.582-8-8-8h-24v-16h56v50.758c0,9.594,5.648,18.203,14.395,21.938h0.004
	c39.934,17.016,65.684,56.078,65.602,99.508C496.388,445.32,450.298,493.625,393.748,496.296z"/>
</svg>
