<?xml version="1.0" encoding="iso-8859-1"?>
<!-- Generator: Adobe Illustrator 19.2.1, SVG Export Plug-In . SVG Version: 6.00 Build 0)  -->
<svg version="1.1" id="Layer_1_1_" xmlns="http://www.w3.org/2000/svg" xmlns:xlink="http://www.w3.org/1999/xlink" x="0px" y="0px"
	 viewBox="0 0 64 64" style="enable-background:new 0 0 64 64;" xml:space="preserve">
<g>
</g>
<path d="M40,48c-2.757,0-5,2.243-5,5s2.243,5,5,5s5-2.243,5-5S42.757,48,40,48z M40,56c-1.654,0-3-1.346-3-3s1.346-3,3-3
	s3,1.346,3,3S41.654,56,40,56z"/>
<path d="M61.383,15.076c-0.124-0.052-0.254-0.067-0.383-0.067V15H29.949C29.433,7.747,23.382,2,16,2C8.28,2,2,8.28,2,16h0.004
	c0,0.19,0.049,0.379,0.156,0.543l5.963,9.215c3.122,4.825,4.473,10.626,3.801,16.334c-0.576,4.898-2.578,9.467-5.789,13.212
	L5.539,56H5c-1.654,0-3,1.346-3,3v2c0,0.552,0.447,1,1,1h26c0.553,0,1-0.448,1-1v-2c0-1.654-1.346-3-3-3h-0.54l-0.596-0.695
	c-3.21-3.746-5.212-8.314-5.788-13.213c-0.481-4.088,0.092-8.218,1.594-12.009L34,42.414v3.897c-1.836,1.649-3,4.033-3,6.689
	c0,4.962,4.037,9,9,9s9-4.038,9-9c0-2.656-1.164-5.04-3-6.689v-3.897l15.707-15.707C61.895,26.52,62,26.265,62,26V16
	C62,15.596,61.757,15.231,61.383,15.076z M40.414,41L24.386,24.972l0.853-1.319L42.586,41H40.414z M4.051,15
	c0.106-1.278,0.406-2.501,0.882-3.635l3.216,1.072L5.586,15H4.051z M10,13.414L11.586,15H8.414L10,13.414z M14.414,15l-3.094-3.094
	L13.5,9h5l2.18,2.906L17.586,15H14.414z M22,13.414L23.586,15h-3.172L22,13.414z M26.414,15l-2.563-2.563l3.216-1.072
	c0.477,1.134,0.776,2.357,0.882,3.635H26.414z M58.586,17l-2,2H28.25l1.294-2H58.586z M26.956,21h27.63l-2,2H27.414l-1.064-1.064
	L26.956,21z M29.414,25h21.172L40,35.586L29.414,25z M41.414,37L60,18.414v2.172l-17.5,17.5L41.414,37z M26.117,9.573l-3.75,1.25
	L20.32,8.094l2.171-2.171C23.948,6.864,25.184,8.111,26.117,9.573z M20.648,4.938L18.586,7h-5.172l-2.062-2.062
	C12.782,4.334,14.353,4,16,4S19.218,4.334,20.648,4.938z M9.508,5.923l2.171,2.171l-2.047,2.729l-3.75-1.25
	C6.816,8.111,8.052,6.864,9.508,5.923z M28,59v1H4v-1c0-0.551,0.448-1,1-1h1h20h1C27.552,58,28,58.449,28,59z M18.09,42.326
	c0.593,5.033,2.576,9.744,5.751,13.674H8.159c3.175-3.931,5.159-8.642,5.751-13.674c0.726-6.169-0.733-12.439-4.107-17.654L4.838,17
	H19h8.162l-4.965,7.671C18.823,29.887,17.364,36.157,18.09,42.326z M23.31,26.724L37.586,41h-2.172L22.544,28.129
	C22.782,27.653,23.04,27.186,23.31,26.724z M47,53c0,3.86-3.141,7-7,7s-7-3.14-7-7s3.141-7,7-7S47,49.14,47,53z M40,44
	c-1.438,0-2.793,0.347-4,0.95V43h8v1.95C42.793,44.347,41.438,44,40,44z M45,40.586L43.914,39.5L60,23.414v2.172L45,40.586z"/>
<rect x="15" y="19" width="2" height="2"/>
<rect x="19" y="19" width="2" height="2"/>
<rect x="11" y="19" width="2" height="2"/>
<path d="M42,13h2c0-1.654,1.346-3,3-3V8c-1.654,0-3-1.346-3-3h-2c0,1.654-1.346,3-3,3v2C40.654,10,42,11.346,42,13z M43,7.969
	C43.292,8.362,43.638,8.708,44.031,9C43.638,9.292,43.292,9.638,43,10.031C42.708,9.638,42.362,9.292,41.969,9
	C42.362,8.708,42.708,8.362,43,7.969z"/>
<path d="M56,45h-2c0,1.654-1.346,3-3,3v2c1.654,0,3,1.346,3,3h2c0-1.654,1.346-3,3-3v-2C57.346,48,56,46.654,56,45z M55,50.031
	c-0.292-0.393-0.638-0.739-1.031-1.031c0.393-0.292,0.739-0.638,1.031-1.031c0.292,0.393,0.638,0.739,1.031,1.031
	C55.638,49.292,55.292,49.638,55,50.031z"/>
<path d="M5,43h2c0-1.654,1.346-3,3-3v-2c-1.654,0-3-1.346-3-3H5c0,1.654-1.346,3-3,3v2C3.654,40,5,41.346,5,43z M6,37.969
	C6.292,38.362,6.638,38.708,7.031,39C6.638,39.292,6.292,39.638,6,40.031C5.708,39.638,5.362,39.292,4.969,39
	C5.362,38.708,5.708,38.362,6,37.969z"/>
<path d="M32,10h2c0-1.654,1.346-3,3-3V5c-1.654,0-3-1.346-3-3h-2c0,1.654-1.346,3-3,3v2C30.654,7,32,8.346,32,10z M33,4.969
	C33.292,5.362,33.638,5.708,34.031,6C33.638,6.292,33.292,6.638,33,7.031C32.708,6.638,32.362,6.292,31.969,6
	C32.362,5.708,32.708,5.362,33,4.969z"/>
</svg>
