<?xml version="1.0" encoding="iso-8859-1"?>
<!-- Generator: Adobe Illustrator 22.1.0, SVG Export Plug-In . SVG Version: 6.00 Build 0)  -->
<svg version="1.1" xmlns="http://www.w3.org/2000/svg" xmlns:xlink="http://www.w3.org/1999/xlink" x="0px" y="0px"
	 viewBox="0 0 50 50" style="enable-background:new 0 0 50 50;" xml:space="preserve">
<g id="Layer_1">
	<path d="M9.045,30H9v0.106L1.132,48.868L35.76,34.346L15.654,14.24L9.045,30z M21,38.367l-4,1.677V18.414l4,4V38.367z M23,24.414
		l4,4v7.437l-4,1.677V24.414z M15,40.883l-4,1.677V30.509l4-9.539V40.883z M9,35.278v8.121l-4.132,1.733L9,35.278z M29,35.012
		v-4.598l3.24,3.24L29,35.012z"/>
	<path d="M27,9c-2.206,0-4,1.794-4,4s1.794,4,4,4s4-1.794,4-4S29.206,9,27,9z M27,15c-1.103,0-2-0.897-2-2s0.897-2,2-2s2,0.897,2,2
		S28.103,15,27,15z"/>
	<path d="M45,1c-2.206,0-4,1.794-4,4s1.794,4,4,4s4-1.794,4-4S47.206,1,45,1z M45,7c-1.103,0-2-0.897-2-2s0.897-2,2-2s2,0.897,2,2
		S46.103,7,45,7z"/>
	<path d="M40,17c-2.206,0-4,1.794-4,4s1.794,4,4,4s4-1.794,4-4S42.206,17,40,17z M40,23c-1.103,0-2-0.897-2-2s0.897-2,2-2
		s2,0.897,2,2S41.103,23,40,23z"/>
	<path d="M35.808,30.674l1.414,1.414c2.776-2.776,7.295-2.776,10.071,0l1.414-1.414C45.15,27.117,39.364,27.117,35.808,30.674z"/>
	<path d="M18.707,14.707c2.729-2.729,2.729-7.17,0-9.899l-1.414,1.414c1.949,1.95,1.949,5.122,0,7.071L18.707,14.707z"/>
	<path d="M35.707,14.465c3.698-3.699,3.698-9.716,0-13.415l-1.414,1.414c2.918,2.919,2.918,7.668,0,10.587L35.707,14.465z"/>
	<rect x="28" y="20" width="2" height="2"/>
	<rect x="44" y="12" width="2" height="2"/>
	<rect x="24" y="3" width="2" height="2"/>
</g>
<g>
</g>
</svg>
